<svg xmlns="http://www.w3.org/2000/svg" width="22" height="22" viewBox="0 0 22 22">
    <g fill="#000" fill-rule="nonzero">
        <path d="M20.97 1.997H6.99A.999.999 0 0 1 6.99 0h13.98a.999.999 0 0 1 0 1.997zM20.97 6.99H1a.999.999 0 0 1 0-1.997H20.97a.999.999 0 0 1 0 1.997zM20.97 11.983H6.99a.999.999 0 0 1 0-1.997h13.98a.999.999 0 0 1 0 1.997zM20.97 16.976H1a.999.999 0 0 1 0-1.997H20.97a.999.999 0 0 1 0 1.997zM20.97 21.969H6.99a.999.999 0 0 1 0-1.997h13.98a.999.999 0 0 1 0 1.997z"/>
    </g>
</svg>
