<svg xmlns="http://www.w3.org/2000/svg" width="20" height="22" viewBox="0 0 20 22">
    <path fill="#000" fill-rule="nonzero" d="M18.66 11.804c-.85-1.002-2.11-1.698-3.783-2.089 1.172-.544 1.88-.91 2.126-1.102.595-.448 1.044-.949 1.345-1.502a3.756 3.756 0 0 0 .454-1.831 5.05 5.05 0 0 0-.298-1.746 4.387 4.387 0 0 0-.92-1.488A5.352 5.352 0 0 0 16.137.958a9.115 9.115 0 0 0-1.36-.557c-.973-.258-1.875-.387-2.706-.387h-1.049c-.189 0-.38-.002-.574-.007L10.145 0c-.047 0-.114.003-.199.007a3.752 3.752 0 0 1-.198.007L9.11.03 3.726.215.042.3l.057 1.187c.793.105 1.332.167 1.615.186.482.029.807.1.978.215.104.076.16.133.17.172.094.21.146.73.156 1.56.037 1.41.08 3.338.127 5.78l.028 7.11c0 1.221-.042 2.147-.127 2.776a2.022 2.022 0 0 1-.298.73c-.434.181-1.015.329-1.743.443-.217.029-.538.086-.963.172l-.028 1.345c2.257-.076 3.542-.129 3.854-.157 2.021-.124 3.429-.177 4.222-.158l2.791.057c1.097.038 2.032-.014 2.806-.157 1.228-.229 2.187-.515 2.876-.859.7-.343 1.36-.858 1.984-1.545.473-.524.807-1.082 1.006-1.674.274-.81.41-1.578.41-2.303 0-1.24-.433-2.366-1.303-3.377zM7.566 1.66c.737-.124 1.35-.186 1.842-.186 1.615 0 2.82.358 3.613 1.073.803.715 1.204 1.607 1.204 2.676 0 1.516-.42 2.585-1.26 3.205-.841.62-2.088.93-3.741.93a9.807 9.807 0 0 1-1.544-.1 37.73 37.73 0 0 1-.015-1.102l.015-1.402a64.2 64.2 0 0 0-.086-3.992 18.597 18.597 0 0 1-.028-1.102zm7.085 16.525c-.35.687-.926 1.226-1.729 1.617s-1.823.587-3.06.587c-.605 0-1.266-.153-1.984-.458-.113-.276-.17-.487-.17-.63l-.043-3.863.015-2.475v-2.06c.255-.096.732-.143 1.43-.143 1.578 0 2.745.152 3.5.457.784.306 1.45.907 1.998 1.803.387.63.581 1.489.581 2.576 0 1.059-.18 1.922-.538 2.59z"/>
</svg>
