<svg xmlns="http://www.w3.org/2000/svg" width="15" height="22" viewBox="0 0 15 22">
    <path fill="#000" fill-rule="nonzero" d="M14.446.036c-.341.024-.673.045-.994.064-1.443.086-2.485.129-3.128.129-.332 0-.687-.01-1.067-.029L4.623 0l-.277 1.474c.097.019.282.038.555.057 1.004.057 1.705.19 2.105.4v.544l-.117.716-.322 1.931-.234.902L5.91 8.27c0 .01-.018.064-.052.165a8.86 8.86 0 0 0-.131.436c-.054.19-.115.413-.183.665a31.054 31.054 0 0 0-.482 2.168l-.176.916-.818 3.834-.395 1.989c-.117.61-.316 1.092-.6 1.445-.389.19-.954.377-1.695.558l-1.125.286-.248 1.217c.233-.02.71-.062 1.432-.13 1.296-.114 2.144-.166 2.543-.157l2.894.029c1.228.124 1.934.205 2.12.243.184.029.32.043.408.043.176 0 .38-.01.614-.029.049-.009.161-.014.336-.014.02-.095.064-.29.132-.587.058-.276.092-.553.102-.83a36.318 36.318 0 0 0-.965-.142 14.963 14.963 0 0 1-1.739-.3c-.029-.192-.034-.32-.014-.387l.175-.644.629-3.362.555-2.26.892-4.45c.214-1.021.536-2.48.965-4.379.039-.362.102-.753.19-1.173.117-.544.234-.963.35-1.26.361-.142.853-.29 1.477-.443a14.718 14.718 0 0 0 1.593-.443c.059-.21.122-.453.19-.73.04-.181.069-.362.088-.543-.01 0-.185.011-.526.035z"/>
</svg>
