<svg xmlns="http://www.w3.org/2000/svg" width="22" height="22" viewBox="0 0 22 22">
    <g fill="#000" fill-rule="nonzero">
        <path d="M.687 1.36c1.164.028 1.865.214 2.103.557.162.239.243 1.254.243 3.048v4.764c0 1.498.076 2.628.229 3.391.21 1.135.606 2.065 1.188 2.79.572.716 1.426 1.298 2.56 1.746 1.117.439 2.471.658 4.064.658 1.393 0 2.609-.157 3.649-.472 1.02-.305 1.888-.73 2.603-1.274.707-.553 1.24-1.14 1.603-1.76.248-.438.444-1.02.587-1.745.2-1.04.272-2.49.215-4.35-.134-3.596-.239-5.484-.315-5.666 0-.104-.008-.252-.022-.443a6.291 6.291 0 0 1-.021-.386c0-.248.071-.444.215-.587.057-.057.434-.138 1.13-.243.372-.01.773-.072 1.202-.186.038-.23.057-.377.057-.444a5.79 5.79 0 0 0-.086-.73L21.634 0c-1.145.124-2.08.172-2.805.143L15.896 0h-1.201l-.03 1.23.201.043 1.431-.028c.41-.01.777.153 1.102.486.18.2.295.62.343 1.26l.057.844c.057.82.122 1.58.193 2.282.072.7.124 1.285.158 1.752.033.468.05 1.078.05 1.832 0 1.488-.1 2.58-.3 3.276a6.286 6.286 0 0 1-.759 1.631c-.162.267-.472.573-.93.916a4.63 4.63 0 0 1-1.416.73c-.83.267-1.741.4-2.733.4-.85 0-1.693-.224-2.533-.672a3.503 3.503 0 0 1-1.373-1.317c-.43-.743-.672-1.707-.73-2.89l-.2-4.006-.015-3.276c0-.057-.002-.179-.007-.365s-.007-.34-.007-.465c0-1.125.062-1.755.186-1.888.181-.239.558-.358 1.13-.358.61 0 1.202-.043 1.774-.129V1.16L10.26.244l.014-.2c-.286.019-.696.028-1.23.028l-2.09.072C6.172.172 5.37.186 4.55.186c-.324 0-1.116-.033-2.375-.1A21 21 0 0 0 .572.03C.315.03.124.034 0 .044l.043 1.259c.076.019.29.038.644.057zM21.519 20.146H.458a.445.445 0 0 0-.33.129.445.445 0 0 0-.128.329v.915c0 .134.043.244.129.33a.445.445 0 0 0 .329.128h21.06a.445.445 0 0 0 .33-.129.446.446 0 0 0 .129-.329v-.915a.446.446 0 0 0-.129-.33.445.445 0 0 0-.33-.128z"/>
    </g>
</svg>
